<svg width="248" height="50" fill="none" xmlns="http://www.w3.org/2000/svg"><path fill-rule="evenodd" clip-rule="evenodd" d="M55.952 26.715c-1.76 0-3.181-.647-4.264-1.942-1.083-1.296-1.665-3.125-1.665-5.435v-.076c.001-.088.002-.175-.006-.263v-.08c0-5.884 4.642-9.992 11.288-9.992 4.311 0 8.126 1.323 11.34 3.932l1.063.864-3.41 4.907-2.514-1.674 1.813-2.628c-2.411-1.615-5.194-2.432-8.291-2.432-1.609 0-3.043.301-4.248.852-.42.218-.831.47-1.233.762-1.37 1-2.055 2.191-2.055 3.577 0 .825.337 1.238 1.015 1.238.152 0 .457-.058.914-.173.473-.1.855-.15 1.142-.15.931 0 1.806.368 2.627 1.103.82.734 1.232 1.744 1.232 3.031 0 1.255-.424 2.331-1.27 3.23-.846.9-2.005 1.35-3.478 1.35zm8.16 1.1c0-1.255.424-2.331 1.27-3.23.846-.9 2.005-1.35 3.478-1.35 1.76 0 3.181.648 4.264 1.944 1.083 1.295 1.625 3.097 1.625 5.408 0 3.184-.995 5.68-2.983 7.487-1.942 1.765-4.696 2.805-7.456 2.93-.506.044-1.024.07-1.559.07-4.794 0-9.366-1.745-12.873-4.912l-1.043-.94 4.098-4.885 2.372 1.862-2.277 2.678c2.772 2.09 6.175 3.227 9.723 3.227 4.18 0 7.068-1.591 8.195-4.376.063-.28.096-.567.096-.864 0-.826-.337-1.238-1.014-1.238-.153 0-.457.058-.915.173-.473.1-.855.149-1.142.149-.93 0-1.807-.367-2.627-1.102-.82-.734-1.232-1.745-1.232-3.032z" fill="#02A793"/><path fill-rule="evenodd" clip-rule="evenodd" d="m123.621 29.702 1.301 1.276c-1.826 1.851-3.827 3.077-7.004 3.077-5.052 0-8.779-3.977-8.779-9.03 0-5.002 3.702-9.08 8.854-9.08 3.177 0 5.078 1.126 6.829 2.777l-1.351 1.45c-1.476-1.4-3.127-2.4-5.503-2.4-3.877 0-6.778 3.126-6.778 7.203s2.926 7.254 6.778 7.254c2.401 0 3.977-.926 5.653-2.527zm-26.47-11.93c-2.275 0-3.726 1.25-3.726 2.85 0 1.677.9 2.602 4.752 3.427 3.902.85 5.703 2.277 5.703 4.978 0 3.027-2.501 4.978-5.978 4.978-2.776 0-5.052-.926-7.153-2.802l1.225-1.45c1.826 1.65 3.577 2.476 6.003 2.476 2.351 0 3.902-1.226 3.902-3.002 0-1.65-.875-2.576-4.552-3.352C93.3 25 91.449 23.7 91.449 20.798c0-2.801 2.426-4.803 5.753-4.803 2.551 0 4.377.726 6.153 2.152l-1.151 1.525c-1.625-1.325-3.251-1.9-5.052-1.9zm48.087 15.982h-2.426l-5.078-6.803h-5.002v6.803h-1.976V16.246h7.528c3.852 0 6.329 2.076 6.329 5.227 0 2.927-2.001 4.628-4.753 5.128l5.378 7.153zm-7.104-15.682c2.827 0 4.478 1.3 4.478 3.476 0 2.276-1.876 3.627-4.503 3.627h-5.377v-7.104h5.402zm14.454-1.826v17.508h1.976V16.246h-1.976zm22.48 4.377c0-2.677-2.251-4.377-5.703-4.377h-7.454v17.508h7.779c3.827 0 6.353-1.775 6.353-4.802 0-2.426-1.676-3.627-3.752-4.252 1.376-.6 2.777-1.776 2.777-4.077zm-6.022 3.426c2.376 0 4.027-1.075 4.027-3.151 0-1.751-1.376-2.877-3.877-2.877h-5.328v6.028h5.178zm5.002 4.778c0 1.976-1.651 3.151-4.302 3.151h-5.878V25.8h5.528c3.051 0 4.652 1.101 4.652 3.027zm23.066-3.802c0-3.902-2.827-6.953-7.254-6.953h-4.102v13.857h4.102c4.427 0 7.254-3.002 7.254-6.904zm-7.254 8.73c5.503 0 9.305-3.828 9.305-8.78 0-4.953-3.802-8.73-9.305-8.73h-6.078v17.51h6.078z" fill="#fff"/></svg>