<svg width="248" height="50" fill="none" xmlns="http://www.w3.org/2000/svg"><g clip-path="url(#a)"><path d="M100.86 29.564c0-.756-.2-1.335-.556-1.757a4.023 4.023 0 0 0-1.401-1.001 8.984 8.984 0 0 0-1.802-.579c-.667-.133-1.268-.267-1.824-.445-.556-.177-1.023-.378-1.38-.645-.377-.267-.555-.645-.555-1.179 0-.311.067-.578.222-.8.134-.223.334-.423.6-.579.268-.155.557-.267.89-.356.334-.066.69-.11 1.068-.11.668 0 1.268.155 1.802.422s.89.667 1.068 1.179c.089.311.2.49.29.578.088.09.2.111.355.111a.645.645 0 0 0 .311-.066.534.534 0 0 0 .201-.178c.044-.067.066-.134.089-.2 0-.045.022-.09.022-.134 0-.045-.045-.2-.111-.512-.089-.311-.267-.622-.534-.979-.29-.333-.712-.645-1.268-.912-.578-.266-1.335-.422-2.291-.422-.912 0-1.624.133-2.158.4-.534.267-.957.6-1.224.957-.289.356-.467.712-.556 1.067a3.335 3.335 0 0 0-.11.801c0 .49.088.912.31 1.268.223.356.468.645.757.846.222.178.445.311.69.4.222.111.511.222.823.311.31.09.667.2 1.09.29.422.11.934.244 1.512.4.178.045.378.111.645.2.267.09.512.2.757.356.222.156.422.356.6.579.178.244.267.533.267.89 0 .266-.067.533-.2.8a2.06 2.06 0 0 1-.556.69c-.267.222-.579.378-.979.511-.4.134-.868.178-1.401.178-.2 0-.445 0-.734-.044a2.546 2.546 0 0 1-.868-.245 2.693 2.693 0 0 1-.868-.578 2.898 2.898 0 0 1-.711-1.068c-.09-.178-.156-.356-.245-.512a.518.518 0 0 0-.445-.222.718.718 0 0 0-.467.178.56.56 0 0 0-.2.445c0 .333.11.712.333 1.112.223.4.512.756.868 1.068.133.133.29.244.467.356.178.133.4.222.667.311s.556.178.912.223c.334.066.734.088 1.202.088 1.023 0 1.824-.133 2.447-.4.622-.267 1.09-.6 1.401-.979.311-.378.534-.756.623-1.156.089-.4.155-.712.155-.957zM105.137 31.944V17.73c0-.134-.022-.267-.022-.4a.913.913 0 0 0-.067-.356.603.603 0 0 0-.2-.267.662.662 0 0 0-.401-.112.588.588 0 0 0-.378.112.61.61 0 0 0-.2.267c-.044.11-.089.222-.089.355v15.015c0 .134.045.245.089.356a.61.61 0 0 0 .2.267c.089.067.223.09.401.09.311 0 .511-.112.578-.357.045-.244.089-.489.089-.756zM110.142 31.944v-9.81c0-.11-.022-.244-.022-.378a.913.913 0 0 0-.067-.356.84.84 0 0 0-.2-.289.638.638 0 0 0-.378-.111.663.663 0 0 0-.401.111.61.61 0 0 0-.2.267c-.044.111-.089.223-.089.356V32.344c0 .134.045.245.089.356a.61.61 0 0 0 .2.267c.089.067.223.09.401.09.311 0 .511-.112.578-.357.045-.244.089-.489.089-.756zm.2-14.036a.842.842 0 0 0-.267-.623.9.9 0 0 0-.6-.245.838.838 0 0 0-.868.868c0 .245.067.445.245.623.156.178.356.244.623.244a.805.805 0 0 0 .6-.244.841.841 0 0 0 .267-.623zM122.555 17.708v5.427c-.134-.178-.312-.378-.512-.623a4.417 4.417 0 0 0-.823-.711c-.334-.223-.734-.4-1.224-.556a5.72 5.72 0 0 0-1.735-.245c-1.001 0-1.824.2-2.491.578a4.72 4.72 0 0 0-1.579 1.446 5.472 5.472 0 0 0-.846 1.913 8.188 8.188 0 0 0-.244 2.002c0 .668.066 1.38.244 2.091.178.712.467 1.38.868 1.98.4.6.912 1.09 1.579 1.468.668.4 1.468.578 2.447.578.623 0 1.157-.066 1.624-.2a4.733 4.733 0 0 0 1.223-.534c.356-.222.645-.445.868-.667.222-.222.423-.445.601-.623v.912c0 .134 0 .267.022.4 0 .134.044.245.089.356.044.112.111.2.2.267.089.067.2.09.378.09.312 0 .512-.112.578-.357.045-.244.089-.489.089-.756V17.708c0-.112-.022-.245-.022-.378a.913.913 0 0 0-.067-.356.603.603 0 0 0-.2-.267.635.635 0 0 0-.378-.112.659.659 0 0 0-.4.112.603.603 0 0 0-.2.267.923.923 0 0 0-.089.355v.379zm-8.031 9.298c0-.8.089-1.49.312-2.113.2-.6.467-1.113.823-1.535.356-.4.756-.712 1.223-.934.467-.2.957-.312 1.491-.312.4 0 .867.09 1.356.223.49.155.935.422 1.357.778.401.378.757.89 1.046 1.513.267.623.423 1.423.423 2.358 0 .622-.045 1.134-.134 1.557-.089.445-.178.8-.311 1.112a3.399 3.399 0 0 1-.423.756c-.178.2-.334.379-.467.512a3.382 3.382 0 0 1-.779.556 4.38 4.38 0 0 1-.778.311 4.18 4.18 0 0 1-.69.134c-.222.022-.378.022-.511.022-.49 0-.979-.089-1.446-.289-.49-.2-.912-.512-1.268-.912-.378-.4-.668-.912-.89-1.535-.223-.623-.334-1.357-.334-2.202zM128.304 27.184h8.031a.905.905 0 0 0 .4-.111c.111-.045.2-.156.267-.29.067-.133.111-.311.111-.556 0-.022-.022-.178-.022-.445a8.004 8.004 0 0 0-.178-1 7.098 7.098 0 0 0-.445-1.246 5.095 5.095 0 0 0-.867-1.224 5.501 5.501 0 0 0-1.402-.934c-.578-.245-1.268-.378-2.068-.378-.846 0-1.602.156-2.247.445-.668.289-1.201.69-1.646 1.223a5.356 5.356 0 0 0-1.024 1.891 8.736 8.736 0 0 0-.333 2.47c0 .845.089 1.645.311 2.38.2.733.512 1.379.957 1.912.445.534.978.957 1.646 1.268.667.312 1.446.468 2.336.468.934 0 1.712-.156 2.335-.49.623-.311 1.112-.69 1.468-1.09.356-.4.601-.8.734-1.179.134-.378.223-.623.223-.712a.7.7 0 0 0-.178-.422.654.654 0 0 0-.489-.2c-.312 0-.534.177-.646.489-.244.6-.533 1.068-.845 1.401a3.441 3.441 0 0 1-.956.734 2.88 2.88 0 0 1-.935.312c-.289.044-.511.044-.667.044-.645 0-1.201-.111-1.691-.356a3.046 3.046 0 0 1-1.201-.978 4.545 4.545 0 0 1-.712-1.513 6.411 6.411 0 0 1-.267-1.913zm7.386-1.112h-7.363c.044-.334.133-.734.267-1.202a3.97 3.97 0 0 1 .667-1.29c.289-.4.667-.756 1.134-1.045.445-.267 1.024-.423 1.691-.423.801 0 1.446.178 1.913.49.467.333.823.711 1.068 1.134.244.445.4.867.467 1.312.067.445.111.801.156 1.024zM142.05 24.09c0-.37.185-.663.554-.87a2.795 2.795 0 0 1 1.314-.304c.923 0 1.619.337 2.075.989.456.662.977.988 1.553.988.38 0 .684-.108.902-.337.217-.228.325-.51.325-.847 0-.63-.434-1.238-1.281-1.825-.858-.586-2.01-.88-3.443-.88-1.575 0-2.759.348-3.541 1.043s-1.173 1.5-1.173 2.4c0 .805.315 1.5.966 2.086.641.587 1.662 1.032 3.074 1.358 1.412.326 2.27.619 2.585.89.315.272.478.587.478.956 0 .413-.195.75-.565 1.01-.369.261-.858.392-1.444.392a3.679 3.679 0 0 1-1.51-.305c-.478-.206-.902-.63-1.293-1.27-.347-.576-.76-.87-1.216-.87-.348 0-.63.12-.858.348-.239.24-.348.51-.348.837 0 .76.413 1.488 1.249 2.161.837.684 2.086 1.021 3.737 1.021 1.629 0 2.889-.326 3.801-1 .902-.662 1.358-1.618 1.358-2.878 0-1.585-1.347-2.704-4.03-3.356-1.39-.337-2.281-.619-2.672-.836-.401-.217-.597-.51-.597-.902zM162.5 25.577c0-1.575-.369-2.726-1.097-3.465-.738-.738-1.694-1.107-2.889-1.107-1.423 0-2.628.597-3.617 1.792v-3.509c0-.738-.043-1.27-.108-1.596a1.349 1.349 0 0 0-.478-.793 1.483 1.483 0 0 0-.934-.304c-.337 0-.63.098-.869.271-.25.174-.413.402-.478.685-.065.282-.098.77-.098 1.488v11.774c0 .912.13 1.52.391 1.814.261.293.619.434 1.075.434.467 0 .837-.141 1.097-.445.261-.304.402-.913.402-1.847v-3.432c0-1.14.087-1.944.261-2.4a2.59 2.59 0 0 1 .88-1.152 2.441 2.441 0 0 1 1.477-.467c.63 0 1.129.217 1.488.63.358.413.543 1.184.543 2.303v4.735c0 .804.119 1.347.38 1.64.25.294.608.435 1.065.435.999 0 1.509-.684 1.509-2.075v-5.409zM173.077 31.388c.663 1.12 1.293 1.673 1.901 1.673.348 0 .652-.12.934-.358.272-.24.413-.51.413-.826 0-.282-.109-.706-.315-1.249-.206-.543-.293-1.238-.261-2.107l.066-2.78c.043-1.901-.348-3.161-1.184-3.791-.848-.63-2.173-.945-3.976-.945-1.792 0-3.106.347-3.932 1.042-.836.695-1.249 1.423-1.249 2.184 0 .325.12.597.38.803.25.207.533.304.848.304.336 0 .597-.087.782-.271.173-.174.38-.478.619-.913.413-.749 1.292-1.13 2.639-1.13.706 0 1.238.164 1.586.479.348.315.521.923.532 1.814-.76.217-1.77.456-3.009.717-1.238.26-2.139.478-2.682.673-.554.195-1.065.543-1.532 1.043-.467.5-.695 1.14-.695 1.944 0 .945.337 1.738 1.032 2.39.684.651 1.673.977 2.954.977 1.347 0 2.737-.554 4.149-1.673zm-.195-4.29c0 .978-.065 1.716-.196 2.205-.13.5-.478.923-1.042 1.282a3.305 3.305 0 0 1-1.814.532c-.619 0-1.097-.163-1.434-.489-.337-.326-.5-.695-.5-1.13 0-.5.207-.88.63-1.14.424-.26 1.141-.489 2.162-.695 1.021-.196 1.749-.391 2.194-.565zM178.93 30.606c0 .728.032 1.228.108 1.488.065.261.239.49.5.685.261.195.554.282.88.282.336 0 .641-.098.901-.315.261-.217.413-.456.478-.717.065-.26.098-.771.098-1.531v-1.716c0-2.042.174-3.433.521-4.15.348-.716.869-1.075 1.586-1.075.282 0 .63.065 1.043.196.412.13.706.184.869.184.282 0 .543-.108.793-.347a1.22 1.22 0 0 0 .369-.902c0-.521-.315-.923-.923-1.227-.609-.304-1.206-.456-1.771-.456-1.086 0-1.944.619-2.552 1.846-.022-1.227-.5-1.846-1.434-1.846-.978 0-1.466.673-1.466 1.998v7.603zM196.556 27.76c.999 0 1.651-.152 1.966-.466.315-.316.478-.75.478-1.293 0-1.227-.478-2.368-1.423-3.421-.956-1.043-2.303-1.575-4.041-1.575-1.824 0-3.258.565-4.279 1.672-1.021 1.108-1.532 2.564-1.532 4.356 0 1.781.511 3.237 1.532 4.355 1.021 1.12 2.531 1.673 4.518 1.673 1.554 0 2.792-.358 3.704-1.097.913-.739 1.369-1.434 1.369-2.107a.802.802 0 0 0-.294-.62 1.039 1.039 0 0 0-.684-.249c-.217 0-.402.043-.575.13-.174.087-.435.315-.783.674-.879.869-1.813 1.303-2.802 1.303-.804 0-1.499-.271-2.074-.836-.576-.565-.88-1.39-.902-2.498h5.822zm-5.822-1.683c.228-2.02 1.13-3.03 2.705-3.03.738 0 1.368.26 1.879.782.499.521.771 1.27.814 2.248h-5.398z" fill="#fff"/><path fill-rule="evenodd" clip-rule="evenodd" d="M54.57 6.25h26.202a3.212 3.212 0 0 1 3.194 3.194V25.978h-1.39V9.45a1.821 1.821 0 0 0-1.81-1.81H54.542a1.821 1.821 0 0 0-1.872 1.81v16.528h-1.39V9.444a3.211 3.211 0 0 1 3.29-3.194z" fill="#026C97"/><path d="M73.08 25.714a4.394 4.394 0 0 0 4.546-4.24 4.407 4.407 0 0 0-4.546-4.171 4.407 4.407 0 0 0-4.546 4.24 4.407 4.407 0 0 0 4.546 4.171zM84.605 23.796a19.729 19.729 0 0 1-13.694 3.614c-1.39 0-2.878-.153-2.878 2.072v.25c2.141 1.39 4.17 1.39 5.7-1.001.987-1.515 2.322-1.001 1.613.973a5.741 5.741 0 0 1-5.561 3.81 8.743 8.743 0 0 1-1.669-.181v6.159a3.713 3.713 0 0 0 3.935 4.018c4.407 0 6.729-4.06 6.729-8.342a16.382 16.382 0 0 0-.75-4.769 18.838 18.838 0 0 0 7.826-5.283c.682-1-.125-2.113-1.25-1.32z" fill="#026C97"/><path fill-rule="evenodd" clip-rule="evenodd" d="M67.074 21.418a4.407 4.407 0 0 1-4.574 4.296 4.394 4.394 0 0 1-4.547-4.24 4.407 4.407 0 0 1 4.547-4.171 4.407 4.407 0 0 1 4.574 4.115zM63.89 27.41a20.131 20.131 0 0 1-13.402-3.614c-1.127-.793-1.905.32-1.168 1.306 2.11 2.401 4.8 4.22 7.813 5.283-2.628 8.954 2.183 13.125 5.978 13.11a3.698 3.698 0 0 0 3.963-4.003v-7.104c.882.263 1.792.426 2.71.486a5.63 5.63 0 0 0 5.631-3.42c.765-1.835-.542-2.364-1.557-.96-1.96 2.698-4.476 2.142-7.076-.347-.71-.653-1.099-.834-2.92-.737h.028z" fill="#D8711C"/></g><defs><clipPath id="a"><path fill="#fff" transform="translate(49 6.25)" d="M0 0h150v37.5H0z"/></clipPath></defs></svg>