<svg width="248" height="50" fill="none" xmlns="http://www.w3.org/2000/svg"><path d="M109.99 31.658s-1.378 3.906-5.848 3.906c-3.515-.074-4.854-3.289-4.854-6.594h13.366c-.075-6.345-3.329-10.064-9.172-10.064h.001c-2.993 0-5.422.91-7.133 2.638-1.641 1.66-2.51 4.215-2.51 6.968 0 5.296 3.638 9.486 10.096 9.486s8.382-5.482 8.382-5.482l-2.328-.86v.002zm-10.664-5.176c.163-1.426.598-2.625 1.31-3.613.722-1.008 1.701-1.519 2.91-1.519s2.176.466 2.891 1.386c.717.925 1.054 2.15 1.054 3.747l-8.166-.001zM75.396 33.939H63.663v-7.84h7.817l.004-3.008h-7.82v-7.42h11.733V12H58.38v25.62h17.015v-3.681zM90.79 19.26l-4.864 14.007-4.543-14.007h-5.986l6.757 18.358H87.3l6.746-18.358h-3.254zM155.036 22.433s1.419-3.526 6.421-3.526c1.627 0 3.495.652 4.535 1.937 1.049 1.3 1.582 3.364 1.582 6.14V37.62h-5.116v-9.946c0-2.756-1.086-4.15-3.229-4.15-1.14 0-2.136.39-2.954 1.164-.821.772-1.239 1.78-1.239 2.987v9.946h-5.121v-18.36h3.995l1.126 3.171v.001zM119.971 22.744s1.47-3.838 6.473-3.838c.813 0 1.903.212 2.864.701l-2.599 4.942c-.693-.716-1.423-1.027-2.494-1.027-1.14 0-2.136.39-2.955 1.164-.82.772-1.239 1.78-1.239 2.987v9.946H114.9V19.261h3.996l1.075 3.483h.002-.002zM128.334 28.461c0 5.562 3.263 9.538 8.118 9.538 3.906 0 5.405-3.51 5.405-3.51l.949 3.13h4.748l-1.318-4.287.05-14.072h-3.951l-.844 2.703s-1.306-3.057-5.039-3.057c-4.855 0-8.118 3.994-8.118 9.555zm4.863.064c0-3.094 1.102-6.127 4.4-6.127s3.404 2.947 3.404 6.179c0 3.231-.264 6.124-3.404 6.124-3.298 0-4.4-3.05-4.4-6.176zM183.385 12v10.433s-1.067-3.526-5.404-3.526c-4.856 0-8.119 3.994-8.119 9.555 0 5.562 3.263 9.538 8.119 9.538 4.163 0 5.404-3.51 5.404-3.51l.95 3.13h5.284l-1.319-4.287V12h-4.916.001zm-8.66 16.485c0-2.746 1.103-6.175 4.401-6.175s3.403 2.947 3.403 6.178v.186-.427.187c0 3.231-.264 6.178-3.403 6.178-3.298 0-4.401-3.429-4.401-6.175v.048z" fill="#fff"/></svg>